<svg width="39" height="39" viewBox="0 0 39 39" fill="none" xmlns="http://www.w3.org/2000/svg">
<path d="M33.2347 0H5.16074C2.31054 0 0 2.31054 0 5.16074V33.2347C0 36.0849 2.31054 38.3955 5.16074 38.3955H33.2347C36.0849 38.3955 38.3955 36.0849 38.3955 33.2347V5.16074C38.3955 2.31054 36.0849 0 33.2347 0Z" fill="url(#paint0_linear_91_30)"/>
<path d="M29.956 8.24535V14.1636H23.1666C21.8947 14.1605 20.6758 13.6535 19.7769 12.7537C18.878 11.8539 18.3723 10.6346 18.3704 9.36272V8.24535H29.9702H29.956Z" fill="white"/>
<path d="M16.6659 32.4275H10.7476L10.7476 15.951H11.8602C12.4916 15.951 13.1168 16.0753 13.7002 16.3169C14.2835 16.5586 14.8135 16.9127 15.26 17.3592C16.1617 18.2609 16.6682 19.4838 16.6682 20.759V32.4275H16.6659Z" fill="white"/>
<path d="M25.0935 22.686H18.3609V21.4171C18.3621 19.9688 18.9383 18.5803 19.9628 17.5567C20.9874 16.5331 22.3764 15.9581 23.8246 15.9581H25.0935V22.686Z" fill="white"/>
<path d="M10.7429 8.24535H17.4755V9.51423C17.4758 10.2319 17.3347 10.9427 17.0603 11.6058C16.7858 12.269 16.3834 12.8716 15.876 13.3792C15.3686 13.8868 14.7662 14.2895 14.1032 14.5642C13.4401 14.839 12.7294 14.9804 12.0117 14.9804H10.7429V8.24535Z" fill="white"/>
<defs>
<linearGradient id="paint0_linear_91_30" x1="0.13257" y1="2.54013" x2="37.0579" y2="34.8019" gradientUnits="userSpaceOnUse">
<stop stop-color="#1B2250"/>
<stop offset="0.18" stop-color="#1C2457"/>
<stop offset="0.44" stop-color="#1E296A"/>
<stop offset="0.74" stop-color="#213189"/>
<stop offset="1" stop-color="#2439A9"/>
</linearGradient>
</defs>
</svg>
