<svg width="162" height="39" viewBox="0 0 162 39" fill="none" xmlns="http://www.w3.org/2000/svg">
<path d="M47.8055 34.6054V6.06506H65.5414V9.41955H51.882V18.6639H63.3398V21.9261H51.882V34.6054H47.8055Z" fill="#1B2250"/>
<path d="M71.9829 10.1842C71.6275 10.1975 71.273 10.1394 70.9404 10.0133C70.6077 9.8873 70.3038 9.69584 70.0464 9.4503C69.797 9.20757 69.6009 8.91543 69.4709 8.59257C69.3409 8.26971 69.2797 7.92326 69.2913 7.57539C69.2811 7.23647 69.3431 6.89927 69.4733 6.5862C69.6035 6.27313 69.7989 5.99137 70.0464 5.75966C70.5828 5.29994 71.2659 5.04724 71.9723 5.04724C72.6786 5.04724 73.3617 5.29994 73.8981 5.75966C74.1501 5.98879 74.3498 6.26963 74.4834 6.58299C74.617 6.89635 74.6814 7.23486 74.6722 7.57539C74.6831 7.92488 74.6198 8.27272 74.4863 8.59592C74.3529 8.91912 74.1524 9.21033 73.8981 9.4503C73.382 9.93875 72.6933 10.2027 71.9829 10.1842ZM69.9423 34.6054V14.0571H74.0212V34.6054H69.9423Z" fill="#1B2250"/>
<path d="M79.8921 34.6054V14.0571H83.5662L83.8029 17.5631C84.4267 16.3446 85.3818 15.3271 86.5585 14.6276C87.8146 13.9017 89.2461 13.5348 90.6965 13.5671C92.3537 13.5671 93.7669 13.8938 94.9364 14.5471C96.1274 15.2233 97.0757 16.2568 97.647 17.5016C98.2783 18.8194 98.5939 20.471 98.5939 22.4563V34.6054H94.5292V22.8635C94.5292 20.9602 94.1078 19.513 93.2651 18.5219C92.4223 17.5308 91.1992 17.0344 89.5957 17.0328C88.5903 17.0178 87.6009 17.2861 86.7408 17.8069C85.8723 18.3523 85.1737 19.1297 84.7238 20.0512C84.2204 21.0296 83.9686 22.2251 83.9686 23.6376V34.6054H79.8921Z" fill="#1B2250"/>
<path d="M113.158 35.0954C111.335 35.1296 109.538 34.6646 107.961 33.7508C106.451 32.855 105.222 31.5555 104.41 29.9986C103.555 28.3951 103.127 26.5194 103.127 24.3715C103.127 22.2235 103.542 20.3415 104.37 18.7254C105.166 17.1481 106.398 15.8332 107.921 14.9377C109.538 14.0066 111.378 13.5344 113.243 13.5718C115.253 13.5718 116.979 14.0208 118.42 14.9188C119.825 15.7819 120.97 17.0089 121.734 18.4698C122.519 19.9801 122.919 21.6611 122.897 23.363V24.2602C122.895 24.6011 122.867 24.9415 122.814 25.2782H106.108V22.4374H118.87C118.786 20.7377 118.215 19.397 117.156 18.4153C116.08 17.4295 114.661 16.9029 113.203 16.9476C112.135 16.937 111.083 17.1977 110.144 17.7051C109.215 18.2139 108.451 18.9778 107.942 19.9067C107.398 20.8726 107.127 22.0894 107.128 23.5571V24.6982C107.128 26.2196 107.4 27.4971 107.942 28.5309C108.421 29.4987 109.165 30.3111 110.087 30.8738C111.008 31.4365 112.071 31.7265 113.151 31.7102C114.457 31.7102 115.538 31.4253 116.394 30.8556C117.24 30.2944 117.889 29.4811 118.247 28.5309H122.326C121.979 29.7688 121.366 30.9166 120.532 31.8948C119.682 32.8924 118.624 33.6923 117.433 34.2384C116.088 34.8338 114.628 35.1263 113.158 35.0954Z" fill="#1B2250"/>
<path d="M134.281 35.0954C132.596 35.0954 131.196 34.8098 130.082 34.2385C129.042 33.7361 128.177 32.9338 127.598 31.9351C127.054 30.9712 126.774 29.8813 126.784 28.7747C126.75 27.5428 127.119 26.3336 127.835 25.3303C128.608 24.3167 129.654 23.5454 130.851 23.1074C132.155 22.5913 133.733 22.3332 135.586 22.3332H140.886C140.918 21.3168 140.737 20.3048 140.356 19.3623C140.037 18.6122 139.487 17.9835 138.786 17.5678C137.98 17.133 137.072 16.9221 136.156 16.9571C135.045 16.9246 133.951 17.23 133.017 17.833C132.146 18.4169 131.602 19.307 131.386 20.5033H127.309C127.433 19.1376 127.949 17.8369 128.796 16.7582C129.644 15.7096 130.746 14.8948 131.997 14.3909C133.315 13.8438 134.729 13.5661 136.156 13.5742C138.086 13.5742 139.704 13.9143 141.009 14.5945C142.265 15.2273 143.296 16.2304 143.963 17.4684C144.629 18.7057 144.962 20.1806 144.962 21.8929V34.6125H141.411L141.092 31.1396C140.811 31.6975 140.462 32.2183 140.053 32.6902C139.628 33.1814 139.134 33.6074 138.585 33.9544C137.996 34.321 137.359 34.6024 136.691 34.79C135.906 35.0041 135.095 35.1069 134.281 35.0954ZM135.055 31.7812C135.875 31.7924 136.686 31.6108 137.423 31.2509C138.127 30.8995 138.746 30.3986 139.236 29.7832C139.738 29.1607 140.131 28.458 140.398 27.7047C140.672 26.9312 140.824 26.1197 140.848 25.2995V25.2166H135.995C135.021 25.1839 134.048 25.3217 133.121 25.6238C132.68 25.7838 132.28 26.0405 131.951 26.3751C131.622 26.7096 131.372 27.1136 131.219 27.5573C131.066 28.0011 131.015 28.4734 131.068 28.9396C131.122 29.4058 131.279 29.8542 131.528 30.2519C131.865 30.7633 132.349 31.1616 132.915 31.3953C133.593 31.6767 134.322 31.8122 135.055 31.793V31.7812Z" fill="#1B2250"/>
<path d="M150.182 34.6054V14.0571H153.852L154.176 17.9419C154.635 17.0576 155.25 16.2636 155.992 15.5982C156.753 14.9344 157.638 14.4283 158.596 14.1092C159.693 13.7437 160.844 13.5645 162 13.5789V17.8495H160.532C159.722 17.8482 158.916 17.959 158.137 18.1786C157.402 18.3839 156.72 18.7457 156.139 19.2391C155.532 19.7805 155.064 20.4591 154.773 21.2182C154.402 22.2284 154.229 23.3006 154.264 24.3762V34.6101L150.182 34.6054Z" fill="#1B2250"/>
<path d="M33.2347 0H5.16074C2.31054 0 0 2.31054 0 5.16074V33.2347C0 36.0849 2.31054 38.3955 5.16074 38.3955H33.2347C36.0849 38.3955 38.3955 36.0849 38.3955 33.2347V5.16074C38.3955 2.31054 36.0849 0 33.2347 0Z" fill="url(#paint0_linear_91_2)"/>
<path d="M29.956 8.24536V14.1636H23.1666C21.8947 14.1605 20.6758 13.6536 19.7769 12.7537C18.878 11.8539 18.3723 10.6346 18.3704 9.36273V8.24536H29.9702H29.956Z" fill="white"/>
<path d="M16.6659 32.4275H10.7476L10.7476 15.951H11.8602C12.4916 15.951 13.1168 16.0753 13.7002 16.3169C14.2835 16.5586 14.8135 16.9127 15.26 17.3592C16.1617 18.2609 16.6682 19.4838 16.6682 20.759V32.4275H16.6659Z" fill="white"/>
<path d="M25.0935 22.686H18.3609V21.4171C18.3621 19.9688 18.9383 18.5803 19.9628 17.5567C20.9874 16.5331 22.3764 15.9581 23.8246 15.9581H25.0935V22.686Z" fill="white"/>
<path d="M10.7429 8.24536H17.4755V9.51424C17.4758 10.232 17.3347 10.9427 17.0603 11.6059C16.7858 12.269 16.3834 12.8716 15.876 13.3792C15.3686 13.8868 14.7662 14.2895 14.1032 14.5642C13.4401 14.839 12.7294 14.9804 12.0117 14.9804H10.7429V8.24536Z" fill="white"/>
<defs>
<linearGradient id="paint0_linear_91_2" x1="0.13257" y1="2.54013" x2="37.0579" y2="34.8019" gradientUnits="userSpaceOnUse">
<stop stop-color="#1B2250"/>
<stop offset="0.18" stop-color="#1C2457"/>
<stop offset="0.44" stop-color="#1E296A"/>
<stop offset="0.74" stop-color="#213189"/>
<stop offset="1" stop-color="#2439A9"/>
</linearGradient>
</defs>
</svg>
