<svg width="468" height="371" viewBox="0 0 468 371" fill="none" xmlns="http://www.w3.org/2000/svg">
<path d="M32.6137 329.331C32.6137 329.958 32.5454 330.501 32.4087 330.961C32.2754 331.418 32.092 331.796 31.8587 332.096C31.6254 332.396 31.3487 332.62 31.0287 332.766C30.712 332.913 30.372 332.986 30.0087 332.986C29.642 332.986 29.3004 332.913 28.9837 332.766C28.6704 332.62 28.397 332.396 28.1637 332.096C27.9304 331.796 27.747 331.418 27.6137 330.961C27.4804 330.501 27.4137 329.958 27.4137 329.331C27.4137 328.705 27.4804 328.161 27.6137 327.701C27.747 327.241 27.9304 326.861 28.1637 326.561C28.397 326.258 28.6704 326.033 28.9837 325.886C29.3004 325.74 29.642 325.666 30.0087 325.666C30.372 325.666 30.712 325.74 31.0287 325.886C31.3487 326.033 31.6254 326.258 31.8587 326.561C32.092 326.861 32.2754 327.241 32.4087 327.701C32.5454 328.161 32.6137 328.705 32.6137 329.331ZM31.6887 329.331C31.6887 328.785 31.642 328.326 31.5487 327.956C31.4587 327.583 31.3354 327.283 31.1787 327.056C31.0254 326.83 30.847 326.668 30.6437 326.571C30.4404 326.471 30.2287 326.421 30.0087 326.421C29.7887 326.421 29.577 326.471 29.3737 326.571C29.1704 326.668 28.992 326.83 28.8387 327.056C28.6854 327.283 28.562 327.583 28.4687 327.956C28.3787 328.326 28.3337 328.785 28.3337 329.331C28.3337 329.878 28.3787 330.336 28.4687 330.706C28.562 331.076 28.6854 331.375 28.8387 331.601C28.992 331.828 29.1704 331.991 29.3737 332.091C29.577 332.188 29.7887 332.236 30.0087 332.236C30.2287 332.236 30.4404 332.188 30.6437 332.091C30.847 331.991 31.0254 331.828 31.1787 331.601C31.3354 331.375 31.4587 331.076 31.5487 330.706C31.642 330.336 31.6887 329.878 31.6887 329.331Z" fill="#202C75"/>
<path d="M48.3319 365.627V359.757L47.1119 360.067V359.317L48.7019 358.627H49.3519V365.627H48.3319Z" fill="#202C75"/>
<path d="M104.118 365.627V364.907C104.585 364.547 105.028 364.184 105.448 363.817C105.868 363.451 106.242 363.087 106.568 362.727C106.902 362.361 107.162 362.004 107.348 361.657C107.535 361.304 107.628 360.967 107.628 360.647C107.628 360.421 107.588 360.211 107.508 360.017C107.428 359.824 107.302 359.667 107.128 359.547C106.955 359.421 106.718 359.357 106.418 359.357C106.132 359.357 105.892 359.421 105.698 359.547C105.512 359.674 105.368 359.844 105.268 360.057C105.175 360.264 105.128 360.494 105.128 360.747H104.158C104.165 360.267 104.268 359.861 104.468 359.527C104.668 359.194 104.938 358.941 105.278 358.767C105.625 358.594 106.012 358.507 106.438 358.507C106.885 358.507 107.272 358.591 107.598 358.757C107.925 358.917 108.178 359.154 108.358 359.467C108.538 359.774 108.628 360.151 108.628 360.597C108.628 360.917 108.565 361.237 108.438 361.557C108.312 361.871 108.138 362.177 107.918 362.477C107.705 362.777 107.465 363.067 107.198 363.347C106.932 363.621 106.655 363.881 106.368 364.127C106.088 364.374 105.818 364.597 105.558 364.797H108.848V365.627H104.118Z" fill="#202C75"/>
<path d="M164.366 365.747C163.92 365.747 163.51 365.667 163.136 365.507C162.77 365.341 162.476 365.094 162.256 364.767C162.043 364.434 161.93 364.017 161.916 363.517H162.916C162.923 363.771 162.983 364.001 163.096 364.207C163.21 364.414 163.373 364.581 163.586 364.707C163.806 364.827 164.066 364.887 164.366 364.887C164.666 364.887 164.916 364.831 165.116 364.717C165.323 364.604 165.476 364.451 165.576 364.257C165.683 364.064 165.736 363.847 165.736 363.607C165.736 363.307 165.663 363.064 165.516 362.877C165.376 362.691 165.183 362.551 164.936 362.457C164.696 362.364 164.426 362.317 164.126 362.317H163.606V361.477H164.126C164.546 361.477 164.88 361.381 165.126 361.187C165.38 360.994 165.506 360.721 165.506 360.367C165.506 360.074 165.41 359.834 165.216 359.647C165.023 359.461 164.74 359.367 164.366 359.367C163.993 359.367 163.696 359.474 163.476 359.687C163.263 359.901 163.143 360.171 163.116 360.497H162.126C162.146 360.104 162.25 359.757 162.436 359.457C162.63 359.151 162.89 358.917 163.216 358.757C163.55 358.591 163.933 358.507 164.366 358.507C164.833 358.507 165.223 358.591 165.536 358.757C165.856 358.917 166.096 359.134 166.256 359.407C166.423 359.681 166.506 359.981 166.506 360.307C166.506 360.554 166.46 360.784 166.366 360.997C166.273 361.204 166.14 361.384 165.966 361.537C165.793 361.691 165.583 361.801 165.336 361.867C165.603 361.921 165.843 362.024 166.056 362.177C166.27 362.331 166.436 362.531 166.556 362.777C166.676 363.017 166.736 363.297 166.736 363.617C166.736 363.997 166.646 364.351 166.466 364.677C166.286 364.997 166.02 365.257 165.666 365.457C165.32 365.651 164.886 365.747 164.366 365.747Z" fill="#202C75"/>
<path d="M223.161 365.627V364.197H219.651V363.417L223.001 358.627H224.151V363.327H225.151V364.197H224.151V365.627H223.161ZM220.741 363.327H223.221V359.727L220.741 363.327Z" fill="#202C75"/>
<path d="M280.399 365.747C279.906 365.747 279.483 365.661 279.129 365.487C278.776 365.307 278.496 365.067 278.289 364.767C278.083 364.461 277.956 364.117 277.909 363.737H278.889C278.956 364.077 279.123 364.357 279.389 364.577C279.656 364.791 279.993 364.897 280.399 364.897C280.706 364.897 280.969 364.824 281.189 364.677C281.409 364.531 281.579 364.334 281.699 364.087C281.819 363.841 281.879 363.567 281.879 363.267C281.879 362.947 281.816 362.671 281.689 362.437C281.569 362.197 281.399 362.011 281.179 361.877C280.966 361.744 280.716 361.677 280.429 361.677C280.083 361.677 279.783 361.757 279.529 361.917C279.283 362.071 279.103 362.267 278.989 362.507H278.019L278.599 358.627H282.369V359.497H279.369L278.999 361.457C279.159 361.277 279.373 361.131 279.639 361.017C279.913 360.904 280.223 360.847 280.569 360.847C280.923 360.847 281.239 360.911 281.519 361.037C281.799 361.157 282.036 361.327 282.229 361.547C282.429 361.767 282.579 362.024 282.679 362.317C282.786 362.611 282.839 362.921 282.839 363.247C282.839 363.601 282.783 363.927 282.669 364.227C282.556 364.527 282.393 364.794 282.179 365.027C281.973 365.254 281.716 365.431 281.409 365.557C281.109 365.684 280.773 365.747 280.399 365.747Z" fill="#202C75"/>
<path d="M338.433 365.747C337.919 365.747 337.486 365.654 337.133 365.467C336.786 365.274 336.506 365.017 336.293 364.697C336.079 364.371 335.923 364.011 335.823 363.617C335.729 363.217 335.683 362.807 335.683 362.387C335.683 361.614 335.789 360.937 336.003 360.357C336.223 359.777 336.536 359.324 336.943 358.997C337.349 358.671 337.839 358.507 338.413 358.507C338.873 358.507 339.263 358.597 339.583 358.777C339.909 358.951 340.163 359.184 340.343 359.477C340.529 359.771 340.643 360.094 340.683 360.447H339.753C339.693 360.101 339.543 359.834 339.303 359.647C339.069 359.454 338.769 359.357 338.403 359.357C338.076 359.357 337.783 359.461 337.523 359.667C337.263 359.867 337.056 360.174 336.903 360.587C336.756 361.001 336.673 361.524 336.653 362.157C336.653 362.164 336.653 362.174 336.653 362.187C336.653 362.201 336.653 362.214 336.653 362.227C336.753 362.027 336.896 361.844 337.083 361.677C337.269 361.511 337.489 361.381 337.743 361.287C338.003 361.187 338.283 361.137 338.583 361.137C338.976 361.137 339.343 361.231 339.683 361.417C340.029 361.597 340.309 361.857 340.523 362.197C340.736 362.537 340.843 362.934 340.843 363.387C340.843 363.794 340.743 364.177 340.543 364.537C340.349 364.897 340.073 365.191 339.713 365.417C339.353 365.637 338.926 365.747 338.433 365.747ZM338.363 364.877C338.649 364.877 338.903 364.817 339.123 364.697C339.349 364.571 339.526 364.397 339.653 364.177C339.786 363.957 339.853 363.707 339.853 363.427C339.853 363.141 339.786 362.891 339.653 362.677C339.526 362.457 339.349 362.287 339.123 362.167C338.903 362.047 338.649 361.987 338.363 361.987C338.076 361.987 337.819 362.054 337.593 362.187C337.366 362.314 337.186 362.487 337.053 362.707C336.919 362.921 336.853 363.164 336.853 363.437C336.853 363.717 336.919 363.967 337.053 364.187C337.186 364.401 337.366 364.571 337.593 364.697C337.826 364.817 338.083 364.877 338.363 364.877Z" fill="#202C75"/>
<path d="M394.898 365.627L397.568 359.487H393.868V358.627H398.598V359.357L395.938 365.627H394.898Z" fill="#202C75"/>
<path d="M453.044 365.747C452.584 365.747 452.167 365.664 451.794 365.497C451.427 365.324 451.134 365.084 450.914 364.777C450.7 364.471 450.594 364.114 450.594 363.707C450.594 363.421 450.647 363.157 450.754 362.917C450.86 362.671 451.01 362.457 451.204 362.277C451.397 362.097 451.624 361.967 451.884 361.887C451.537 361.747 451.264 361.541 451.064 361.267C450.864 360.994 450.764 360.694 450.764 360.367C450.764 360.027 450.854 359.717 451.034 359.437C451.214 359.157 451.474 358.934 451.814 358.767C452.154 358.594 452.564 358.507 453.044 358.507C453.524 358.507 453.934 358.594 454.274 358.767C454.614 358.934 454.87 359.157 455.044 359.437C455.224 359.717 455.314 360.027 455.314 360.367C455.314 360.694 455.214 360.997 455.014 361.277C454.82 361.551 454.55 361.754 454.204 361.887C454.464 361.967 454.69 362.097 454.884 362.277C455.077 362.457 455.227 362.671 455.334 362.917C455.44 363.157 455.494 363.421 455.494 363.707C455.494 364.114 455.384 364.471 455.164 364.777C454.95 365.084 454.657 365.324 454.284 365.497C453.917 365.664 453.504 365.747 453.044 365.747ZM453.044 364.887C453.53 364.887 453.894 364.774 454.134 364.547C454.38 364.314 454.504 364.011 454.504 363.637C454.504 363.217 454.37 362.897 454.104 362.677C453.844 362.457 453.49 362.347 453.044 362.347C452.597 362.347 452.24 362.457 451.974 362.677C451.714 362.897 451.584 363.217 451.584 363.637C451.584 364.011 451.704 364.314 451.944 364.547C452.19 364.774 452.557 364.887 453.044 364.887ZM453.044 361.557C453.437 361.557 453.747 361.454 453.974 361.247C454.207 361.041 454.324 360.777 454.324 360.457C454.324 360.091 454.21 359.814 453.984 359.627C453.757 359.441 453.444 359.347 453.044 359.347C452.65 359.347 452.34 359.441 452.114 359.627C451.887 359.814 451.774 360.091 451.774 360.457C451.774 360.777 451.887 361.041 452.114 361.247C452.34 361.454 452.65 361.557 453.044 361.557Z" fill="#202C75"/>
<path d="M26.7947 305.893V306.573H22.9547V305.893H24.4897V301.008C24.4897 300.862 24.4947 300.713 24.5047 300.563L23.2297 301.658C23.1864 301.695 23.143 301.718 23.0997 301.728C23.0564 301.735 23.0164 301.735 22.9797 301.728C22.943 301.722 22.908 301.708 22.8747 301.688C22.8447 301.668 22.8214 301.647 22.8047 301.623L22.5247 301.238L24.6597 299.393H25.3847V305.893H26.7947ZM33.0055 302.993C33.0055 303.62 32.9372 304.163 32.8005 304.623C32.6672 305.08 32.4838 305.458 32.2505 305.758C32.0172 306.058 31.7405 306.282 31.4205 306.428C31.1038 306.575 30.7638 306.648 30.4005 306.648C30.0338 306.648 29.6922 306.575 29.3755 306.428C29.0622 306.282 28.7888 306.058 28.5555 305.758C28.3222 305.458 28.1388 305.08 28.0055 304.623C27.8722 304.163 27.8055 303.62 27.8055 302.993C27.8055 302.367 27.8722 301.823 28.0055 301.363C28.1388 300.903 28.3222 300.523 28.5555 300.223C28.7888 299.92 29.0622 299.695 29.3755 299.548C29.6922 299.402 30.0338 299.328 30.4005 299.328C30.7638 299.328 31.1038 299.402 31.4205 299.548C31.7405 299.695 32.0172 299.92 32.2505 300.223C32.4838 300.523 32.6672 300.903 32.8005 301.363C32.9372 301.823 33.0055 302.367 33.0055 302.993ZM32.0805 302.993C32.0805 302.447 32.0338 301.988 31.9405 301.618C31.8505 301.245 31.7272 300.945 31.5705 300.718C31.4172 300.492 31.2388 300.33 31.0355 300.233C30.8322 300.133 30.6205 300.083 30.4005 300.083C30.1805 300.083 29.9688 300.133 29.7655 300.233C29.5622 300.33 29.3838 300.492 29.2305 300.718C29.0772 300.945 28.9538 301.245 28.8605 301.618C28.7705 301.988 28.7255 302.447 28.7255 302.993C28.7255 303.54 28.7705 303.998 28.8605 304.368C28.9538 304.738 29.0772 305.037 29.2305 305.263C29.3838 305.49 29.5622 305.653 29.7655 305.753C29.9688 305.85 30.1805 305.898 30.4005 305.898C30.6205 305.898 30.8322 305.85 31.0355 305.753C31.2388 305.653 31.4172 305.49 31.5705 305.263C31.7272 305.037 31.8505 304.738 31.9405 304.368C32.0338 303.998 32.0805 303.54 32.0805 302.993Z" fill="#202C75"/>
<path d="M26.6397 279.393C26.7364 279.393 26.813 279.421 26.8697 279.478C26.9264 279.534 26.9547 279.608 26.9547 279.698V280.238H22.1747V279.933C22.1747 279.869 22.188 279.804 22.2147 279.738C22.2414 279.671 22.283 279.609 22.3397 279.553L24.6347 277.248C24.8247 277.054 24.998 276.869 25.1547 276.693C25.3114 276.513 25.4447 276.333 25.5547 276.153C25.6647 275.973 25.7497 275.791 25.8097 275.608C25.8697 275.421 25.8997 275.223 25.8997 275.013C25.8997 274.803 25.8664 274.619 25.7997 274.463C25.733 274.303 25.6414 274.171 25.5247 274.068C25.4114 273.964 25.2764 273.888 25.1197 273.838C24.963 273.784 24.7947 273.758 24.6147 273.758C24.4314 273.758 24.263 273.784 24.1097 273.838C23.9564 273.891 23.8197 273.966 23.6997 274.063C23.583 274.156 23.4847 274.268 23.4047 274.398C23.3247 274.528 23.268 274.671 23.2347 274.828C23.1947 274.944 23.1397 275.023 23.0697 275.063C23.003 275.099 22.908 275.109 22.7847 275.093L22.3197 275.013C22.3664 274.686 22.4564 274.398 22.5897 274.148C22.7264 273.894 22.8964 273.683 23.0997 273.513C23.3064 273.343 23.5414 273.214 23.8047 273.128C24.068 273.038 24.353 272.993 24.6597 272.993C24.963 272.993 25.2464 273.038 25.5097 273.128C25.773 273.218 26.0014 273.349 26.1947 273.523C26.388 273.693 26.5397 273.901 26.6497 274.148C26.7597 274.394 26.8147 274.674 26.8147 274.988C26.8147 275.254 26.7747 275.503 26.6947 275.733C26.6147 275.959 26.5064 276.176 26.3697 276.383C26.233 276.589 26.0747 276.791 25.8947 276.988C25.718 277.184 25.5297 277.383 25.3297 277.583L23.4397 279.513C23.573 279.476 23.708 279.448 23.8447 279.428C23.9814 279.404 24.113 279.393 24.2397 279.393H26.6397ZM33.0055 276.658C33.0055 277.284 32.9372 277.828 32.8005 278.288C32.6672 278.744 32.4838 279.123 32.2505 279.423C32.0172 279.723 31.7405 279.946 31.4205 280.093C31.1038 280.239 30.7638 280.313 30.4005 280.313C30.0338 280.313 29.6922 280.239 29.3755 280.093C29.0622 279.946 28.7888 279.723 28.5555 279.423C28.3222 279.123 28.1388 278.744 28.0055 278.288C27.8722 277.828 27.8055 277.284 27.8055 276.658C27.8055 276.031 27.8722 275.488 28.0055 275.028C28.1388 274.568 28.3222 274.188 28.5555 273.888C28.7888 273.584 29.0622 273.359 29.3755 273.213C29.6922 273.066 30.0338 272.993 30.4005 272.993C30.7638 272.993 31.1038 273.066 31.4205 273.213C31.7405 273.359 32.0172 273.584 32.2505 273.888C32.4838 274.188 32.6672 274.568 32.8005 275.028C32.9372 275.488 33.0055 276.031 33.0055 276.658ZM32.0805 276.658C32.0805 276.111 32.0338 275.653 31.9405 275.283C31.8505 274.909 31.7272 274.609 31.5705 274.383C31.4172 274.156 31.2388 273.994 31.0355 273.898C30.8322 273.798 30.6205 273.748 30.4005 273.748C30.1805 273.748 29.9688 273.798 29.7655 273.898C29.5622 273.994 29.3838 274.156 29.2305 274.383C29.0772 274.609 28.9538 274.909 28.8605 275.283C28.7705 275.653 28.7255 276.111 28.7255 276.658C28.7255 277.204 28.7705 277.663 28.8605 278.033C28.9538 278.403 29.0772 278.701 29.2305 278.928C29.3838 279.154 29.5622 279.318 29.7655 279.418C29.9688 279.514 30.1805 279.563 30.4005 279.563C30.6205 279.563 30.8322 279.514 31.0355 279.418C31.2388 279.318 31.4172 279.154 31.5705 278.928C31.7272 278.701 31.8505 278.403 31.9405 278.033C32.0338 277.663 32.0805 277.204 32.0805 276.658Z" fill="#202C75"/>
<path d="M22.3547 248.674C22.4014 248.348 22.4914 248.059 22.6247 247.809C22.758 247.556 22.9264 247.344 23.1297 247.174C23.3364 247.004 23.5714 246.876 23.8347 246.789C24.1014 246.699 24.388 246.654 24.6947 246.654C24.998 246.654 25.278 246.698 25.5347 246.784C25.7914 246.871 26.0114 246.994 26.1947 247.154C26.3814 247.314 26.5264 247.508 26.6297 247.734C26.733 247.961 26.7847 248.213 26.7847 248.489C26.7847 248.716 26.7547 248.919 26.6947 249.099C26.638 249.276 26.5547 249.431 26.4447 249.564C26.338 249.698 26.208 249.811 26.0547 249.904C25.9014 249.998 25.7297 250.074 25.5397 250.134C26.0064 250.254 26.3564 250.461 26.5897 250.754C26.8264 251.044 26.9447 251.408 26.9447 251.844C26.9447 252.174 26.8814 252.471 26.7547 252.734C26.6314 252.998 26.4614 253.223 26.2447 253.409C26.028 253.593 25.7747 253.734 25.4847 253.834C25.198 253.931 24.8897 253.979 24.5597 253.979C24.1797 253.979 23.8547 253.933 23.5847 253.839C23.3147 253.743 23.0864 253.611 22.8997 253.444C22.713 253.278 22.5597 253.081 22.4397 252.854C22.3197 252.624 22.218 252.376 22.1347 252.109L22.5197 251.949C22.6197 251.906 22.7164 251.894 22.8097 251.914C22.9064 251.934 22.9764 251.989 23.0197 252.079C23.063 252.173 23.1164 252.284 23.1797 252.414C23.2464 252.544 23.3364 252.669 23.4497 252.789C23.563 252.909 23.7064 253.011 23.8797 253.094C24.0564 253.178 24.2797 253.219 24.5497 253.219C24.7997 253.219 25.018 253.179 25.2047 253.099C25.3947 253.016 25.5514 252.909 25.6747 252.779C25.8014 252.649 25.8964 252.504 25.9597 252.344C26.023 252.184 26.0547 252.026 26.0547 251.869C26.0547 251.676 26.0297 251.499 25.9797 251.339C25.9297 251.179 25.8364 251.041 25.6997 250.924C25.563 250.808 25.3747 250.716 25.1347 250.649C24.898 250.583 24.593 250.549 24.2197 250.549V249.904C24.5264 249.901 24.7864 249.868 24.9997 249.804C25.2164 249.741 25.3914 249.654 25.5247 249.544C25.6614 249.434 25.7597 249.303 25.8197 249.149C25.883 248.996 25.9147 248.826 25.9147 248.639C25.9147 248.433 25.8814 248.253 25.8147 248.099C25.7514 247.946 25.663 247.819 25.5497 247.719C25.4364 247.619 25.3014 247.544 25.1447 247.494C24.9914 247.444 24.8247 247.419 24.6447 247.419C24.4647 247.419 24.2964 247.446 24.1397 247.499C23.9864 247.553 23.8497 247.628 23.7297 247.724C23.613 247.818 23.5147 247.929 23.4347 248.059C23.3547 248.189 23.298 248.333 23.2647 248.489C23.2214 248.606 23.1664 248.684 23.0997 248.724C23.0364 248.761 22.943 248.771 22.8197 248.754L22.3547 248.674ZM33.0055 250.319C33.0055 250.946 32.9372 251.489 32.8005 251.949C32.6672 252.406 32.4838 252.784 32.2505 253.084C32.0172 253.384 31.7405 253.608 31.4205 253.754C31.1038 253.901 30.7638 253.974 30.4005 253.974C30.0338 253.974 29.6922 253.901 29.3755 253.754C29.0622 253.608 28.7888 253.384 28.5555 253.084C28.3222 252.784 28.1388 252.406 28.0055 251.949C27.8722 251.489 27.8055 250.946 27.8055 250.319C27.8055 249.693 27.8722 249.149 28.0055 248.689C28.1388 248.229 28.3222 247.849 28.5555 247.549C28.7888 247.246 29.0622 247.021 29.3755 246.874C29.6922 246.728 30.0338 246.654 30.4005 246.654C30.7638 246.654 31.1038 246.728 31.4205 246.874C31.7405 247.021 32.0172 247.246 32.2505 247.549C32.4838 247.849 32.6672 248.229 32.8005 248.689C32.9372 249.149 33.0055 249.693 33.0055 250.319ZM32.0805 250.319C32.0805 249.773 32.0338 249.314 31.9405 248.944C31.8505 248.571 31.7272 248.271 31.5705 248.044C31.4172 247.818 31.2388 247.656 31.0355 247.559C30.8322 247.459 30.6205 247.409 30.4005 247.409C30.1805 247.409 29.9688 247.459 29.7655 247.559C29.5622 247.656 29.3838 247.818 29.2305 248.044C29.0772 248.271 28.9538 248.571 28.8605 248.944C28.7705 249.314 28.7255 249.773 28.7255 250.319C28.7255 250.866 28.7705 251.324 28.8605 251.694C28.9538 252.064 29.0772 252.363 29.2305 252.589C29.3838 252.816 29.5622 252.979 29.7655 253.079C29.9688 253.176 30.1805 253.224 30.4005 253.224C30.6205 253.224 30.8322 253.176 31.0355 253.079C31.2388 252.979 31.4172 252.816 31.5705 252.589C31.7272 252.363 31.8505 252.064 31.9405 251.694C32.0338 251.324 32.0805 250.866 32.0805 250.319Z" fill="#202C75"/>
<path d="M24.8579 226.559V225.129H21.3479V224.349L24.6979 219.559H25.8479V224.259H26.8479V225.129H25.8479V226.559H24.8579ZM22.4379 224.259H24.9179V220.659L22.4379 224.259ZM30.6188 226.679C29.9988 226.679 29.4655 226.529 29.0188 226.229C28.5721 225.922 28.2288 225.499 27.9888 224.959C27.7488 224.412 27.6288 223.779 27.6288 223.059C27.6288 222.339 27.7488 221.709 27.9888 221.169C28.2288 220.622 28.5721 220.199 29.0188 219.899C29.4655 219.592 29.9988 219.439 30.6188 219.439C31.2388 219.439 31.7688 219.592 32.2088 219.899C32.6555 220.199 32.9955 220.622 33.2288 221.169C33.4688 221.709 33.5888 222.339 33.5888 223.059C33.5888 223.779 33.4688 224.412 33.2288 224.959C32.9955 225.499 32.6555 225.922 32.2088 226.229C31.7688 226.529 31.2388 226.679 30.6188 226.679ZM30.6188 225.789C30.9921 225.789 31.3255 225.679 31.6188 225.459C31.9188 225.239 32.1521 224.926 32.3188 224.519C32.4855 224.112 32.5688 223.626 32.5688 223.059C32.5688 222.492 32.4855 222.006 32.3188 221.599C32.1521 221.192 31.9188 220.882 31.6188 220.669C31.3255 220.449 30.9921 220.339 30.6188 220.339C30.2388 220.339 29.8988 220.449 29.5988 220.669C29.2988 220.882 29.0655 221.192 28.8988 221.599C28.7321 222.006 28.6488 222.492 28.6488 223.059C28.6488 223.626 28.7321 224.112 28.8988 224.519C29.0655 224.926 29.2988 225.239 29.5988 225.459C29.8988 225.679 30.2388 225.789 30.6188 225.789Z" fill="#202C75"/>
<path d="M24.1221 200.343C23.6287 200.343 23.2054 200.256 22.8521 200.083C22.4987 199.903 22.2187 199.663 22.0121 199.363C21.8054 199.056 21.6787 198.713 21.6321 198.333H22.6121C22.6787 198.673 22.8454 198.953 23.1121 199.173C23.3787 199.386 23.7154 199.493 24.1221 199.493C24.4287 199.493 24.6921 199.42 24.9121 199.273C25.1321 199.126 25.3021 198.93 25.4221 198.683C25.5421 198.436 25.6021 198.163 25.6021 197.863C25.6021 197.543 25.5387 197.266 25.4121 197.033C25.2921 196.793 25.1221 196.606 24.9021 196.473C24.6887 196.34 24.4387 196.273 24.1521 196.273C23.8054 196.273 23.5054 196.353 23.2521 196.513C23.0054 196.666 22.8254 196.863 22.7121 197.103H21.7421L22.3221 193.223H26.0921V194.093H23.0921L22.7221 196.053C22.8821 195.873 23.0954 195.726 23.3621 195.613C23.6354 195.5 23.9454 195.443 24.2921 195.443C24.6454 195.443 24.9621 195.506 25.2421 195.633C25.5221 195.753 25.7587 195.923 25.9521 196.143C26.1521 196.363 26.3021 196.62 26.4021 196.913C26.5087 197.206 26.5621 197.516 26.5621 197.843C26.5621 198.196 26.5054 198.523 26.3921 198.823C26.2787 199.123 26.1154 199.39 25.9021 199.623C25.6954 199.85 25.4387 200.026 25.1321 200.153C24.8321 200.28 24.4954 200.343 24.1221 200.343ZM30.5846 200.343C29.9646 200.343 29.4313 200.193 28.9846 199.893C28.538 199.586 28.1946 199.163 27.9546 198.623C27.7146 198.076 27.5946 197.443 27.5946 196.723C27.5946 196.003 27.7146 195.373 27.9546 194.833C28.1946 194.286 28.538 193.863 28.9846 193.563C29.4313 193.256 29.9646 193.103 30.5846 193.103C31.2046 193.103 31.7346 193.256 32.1746 193.563C32.6213 193.863 32.9613 194.286 33.1946 194.833C33.4346 195.373 33.5546 196.003 33.5546 196.723C33.5546 197.443 33.4346 198.076 33.1946 198.623C32.9613 199.163 32.6213 199.586 32.1746 199.893C31.7346 200.193 31.2046 200.343 30.5846 200.343ZM30.5846 199.453C30.958 199.453 31.2913 199.343 31.5846 199.123C31.8846 198.903 32.118 198.59 32.2846 198.183C32.4513 197.776 32.5346 197.29 32.5346 196.723C32.5346 196.156 32.4513 195.67 32.2846 195.263C32.118 194.856 31.8846 194.546 31.5846 194.333C31.2913 194.113 30.958 194.003 30.5846 194.003C30.2046 194.003 29.8646 194.113 29.5646 194.333C29.2646 194.546 29.0313 194.856 28.8646 195.263C28.698 195.67 28.6146 196.156 28.6146 196.723C28.6146 197.29 28.698 197.776 28.8646 198.183C29.0313 198.59 29.2646 198.903 29.5646 199.123C29.8646 199.343 30.2046 199.453 30.5846 199.453Z" fill="#202C75"/>
<path d="M24.1839 174.005C23.6706 174.005 23.2373 173.912 22.8839 173.725C22.5373 173.532 22.2573 173.275 22.0439 172.955C21.8306 172.628 21.6739 172.268 21.5739 171.875C21.4806 171.475 21.4339 171.065 21.4339 170.645C21.4339 169.872 21.5406 169.195 21.7539 168.615C21.9739 168.035 22.2873 167.582 22.6939 167.255C23.1006 166.928 23.5906 166.765 24.1639 166.765C24.6239 166.765 25.0139 166.855 25.3339 167.035C25.6606 167.208 25.9139 167.442 26.0939 167.735C26.2806 168.028 26.3939 168.352 26.4339 168.705H25.5039C25.4439 168.358 25.2939 168.092 25.0539 167.905C24.8206 167.712 24.5206 167.615 24.1539 167.615C23.8273 167.615 23.5339 167.718 23.2739 167.925C23.0139 168.125 22.8073 168.432 22.6539 168.845C22.5073 169.258 22.4239 169.782 22.4039 170.415C22.4039 170.422 22.4039 170.432 22.4039 170.445C22.4039 170.458 22.4039 170.472 22.4039 170.485C22.5039 170.285 22.6473 170.102 22.8339 169.935C23.0206 169.768 23.2406 169.638 23.4939 169.545C23.7539 169.445 24.0339 169.395 24.3339 169.395C24.7273 169.395 25.0939 169.488 25.4339 169.675C25.7806 169.855 26.0606 170.115 26.2739 170.455C26.4873 170.795 26.5939 171.192 26.5939 171.645C26.5939 172.052 26.4939 172.435 26.2939 172.795C26.1006 173.155 25.8239 173.448 25.4639 173.675C25.1039 173.895 24.6773 174.005 24.1839 174.005ZM24.1139 173.135C24.4006 173.135 24.6539 173.075 24.8739 172.955C25.1006 172.828 25.2773 172.655 25.4039 172.435C25.5373 172.215 25.6039 171.965 25.6039 171.685C25.6039 171.398 25.5373 171.148 25.4039 170.935C25.2773 170.715 25.1006 170.545 24.8739 170.425C24.6539 170.305 24.4006 170.245 24.1139 170.245C23.8273 170.245 23.5706 170.312 23.3439 170.445C23.1173 170.572 22.9373 170.745 22.8039 170.965C22.6706 171.178 22.6039 171.422 22.6039 171.695C22.6039 171.975 22.6706 172.225 22.8039 172.445C22.9373 172.658 23.1173 172.828 23.3439 172.955C23.5773 173.075 23.8339 173.135 24.1139 173.135ZM30.6628 174.005C30.0428 174.005 29.5094 173.855 29.0628 173.555C28.6161 173.248 28.2728 172.825 28.0328 172.285C27.7928 171.738 27.6728 171.105 27.6728 170.385C27.6728 169.665 27.7928 169.035 28.0328 168.495C28.2728 167.948 28.6161 167.525 29.0628 167.225C29.5094 166.918 30.0428 166.765 30.6628 166.765C31.2828 166.765 31.8128 166.918 32.2528 167.225C32.6994 167.525 33.0394 167.948 33.2728 168.495C33.5128 169.035 33.6328 169.665 33.6328 170.385C33.6328 171.105 33.5128 171.738 33.2728 172.285C33.0394 172.825 32.6994 173.248 32.2528 173.555C31.8128 173.855 31.2828 174.005 30.6628 174.005ZM30.6628 173.115C31.0361 173.115 31.3694 173.005 31.6628 172.785C31.9628 172.565 32.1961 172.252 32.3628 171.845C32.5294 171.438 32.6128 170.952 32.6128 170.385C32.6128 169.818 32.5294 169.332 32.3628 168.925C32.1961 168.518 31.9628 168.208 31.6628 167.995C31.3694 167.775 31.0361 167.665 30.6628 167.665C30.2828 167.665 29.9428 167.775 29.6428 167.995C29.3428 168.208 29.1094 168.518 28.9428 168.925C28.7761 169.332 28.6928 169.818 28.6928 170.385C28.6928 170.952 28.7761 171.438 28.9428 171.845C29.1094 172.252 29.3428 172.565 29.6428 172.785C29.9428 173.005 30.2828 173.115 30.6628 173.115Z" fill="#202C75"/>
<path d="M22.7313 147.549L25.4013 141.409H21.7013V140.549H26.4313V141.279L23.7713 147.549H22.7313ZM30.1354 147.669C29.5154 147.669 28.9821 147.519 28.5354 147.219C28.0887 146.912 27.7454 146.489 27.5054 145.949C27.2654 145.402 27.1454 144.769 27.1454 144.049C27.1454 143.329 27.2654 142.699 27.5054 142.159C27.7454 141.612 28.0887 141.189 28.5354 140.889C28.9821 140.582 29.5154 140.429 30.1354 140.429C30.7554 140.429 31.2854 140.582 31.7254 140.889C32.1721 141.189 32.5121 141.612 32.7454 142.159C32.9854 142.699 33.1054 143.329 33.1054 144.049C33.1054 144.769 32.9854 145.402 32.7454 145.949C32.5121 146.489 32.1721 146.912 31.7254 147.219C31.2854 147.519 30.7554 147.669 30.1354 147.669ZM30.1354 146.779C30.5087 146.779 30.8421 146.669 31.1354 146.449C31.4354 146.229 31.6687 145.916 31.8354 145.509C32.0021 145.102 32.0854 144.616 32.0854 144.049C32.0854 143.482 32.0021 142.996 31.8354 142.589C31.6687 142.182 31.4354 141.872 31.1354 141.659C30.8421 141.439 30.5087 141.329 30.1354 141.329C29.7554 141.329 29.4154 141.439 29.1154 141.659C28.8154 141.872 28.5821 142.182 28.4154 142.589C28.2487 142.996 28.1654 143.482 28.1654 144.049C28.1654 144.616 28.2487 145.102 28.4154 145.509C28.5821 145.916 28.8154 146.229 29.1154 146.449C29.4154 146.669 29.7554 146.779 30.1354 146.779Z" fill="#202C75"/>
<path d="M24.0523 121.331C23.5923 121.331 23.1756 121.248 22.8023 121.081C22.4356 120.908 22.1423 120.668 21.9223 120.361C21.709 120.054 21.6023 119.698 21.6023 119.291C21.6023 119.004 21.6556 118.741 21.7623 118.501C21.869 118.254 22.019 118.041 22.2123 117.861C22.4056 117.681 22.6323 117.551 22.8923 117.471C22.5456 117.331 22.2723 117.124 22.0723 116.851C21.8723 116.578 21.7723 116.278 21.7723 115.951C21.7723 115.611 21.8623 115.301 22.0423 115.021C22.2223 114.741 22.4823 114.518 22.8223 114.351C23.1623 114.178 23.5723 114.091 24.0523 114.091C24.5323 114.091 24.9423 114.178 25.2823 114.351C25.6223 114.518 25.879 114.741 26.0523 115.021C26.2323 115.301 26.3223 115.611 26.3223 115.951C26.3223 116.278 26.2223 116.581 26.0223 116.861C25.829 117.134 25.559 117.338 25.2123 117.471C25.4723 117.551 25.699 117.681 25.8923 117.861C26.0856 118.041 26.2356 118.254 26.3423 118.501C26.449 118.741 26.5023 119.004 26.5023 119.291C26.5023 119.698 26.3923 120.054 26.1723 120.361C25.959 120.668 25.6656 120.908 25.2923 121.081C24.9256 121.248 24.5123 121.331 24.0523 121.331ZM24.0523 120.471C24.539 120.471 24.9023 120.358 25.1423 120.131C25.389 119.898 25.5123 119.594 25.5123 119.221C25.5123 118.801 25.379 118.481 25.1123 118.261C24.8523 118.041 24.499 117.931 24.0523 117.931C23.6056 117.931 23.249 118.041 22.9823 118.261C22.7223 118.481 22.5923 118.801 22.5923 119.221C22.5923 119.594 22.7123 119.898 22.9523 120.131C23.199 120.358 23.5656 120.471 24.0523 120.471ZM24.0523 117.141C24.4456 117.141 24.7556 117.038 24.9823 116.831C25.2156 116.624 25.3323 116.361 25.3323 116.041C25.3323 115.674 25.219 115.398 24.9923 115.211C24.7656 115.024 24.4523 114.931 24.0523 114.931C23.659 114.931 23.349 115.024 23.1223 115.211C22.8956 115.398 22.7823 115.674 22.7823 116.041C22.7823 116.361 22.8956 116.624 23.1223 116.831C23.349 117.038 23.659 117.141 24.0523 117.141ZM30.5944 121.331C29.9744 121.331 29.4411 121.181 28.9944 120.881C28.5477 120.574 28.2044 120.151 27.9644 119.611C27.7244 119.064 27.6044 118.431 27.6044 117.711C27.6044 116.991 27.7244 116.361 27.9644 115.821C28.2044 115.274 28.5477 114.851 28.9944 114.551C29.4411 114.244 29.9744 114.091 30.5944 114.091C31.2144 114.091 31.7444 114.244 32.1844 114.551C32.6311 114.851 32.9711 115.274 33.2044 115.821C33.4444 116.361 33.5644 116.991 33.5644 117.711C33.5644 118.431 33.4444 119.064 33.2044 119.611C32.9711 120.151 32.6311 120.574 32.1844 120.881C31.7444 121.181 31.2144 121.331 30.5944 121.331ZM30.5944 120.441C30.9677 120.441 31.3011 120.331 31.5944 120.111C31.8944 119.891 32.1277 119.578 32.2944 119.171C32.4611 118.764 32.5444 118.278 32.5444 117.711C32.5444 117.144 32.4611 116.658 32.2944 116.251C32.1277 115.844 31.8944 115.534 31.5944 115.321C31.3011 115.101 30.9677 114.991 30.5944 114.991C30.2144 114.991 29.8744 115.101 29.5744 115.321C29.2744 115.534 29.0411 115.844 28.8744 116.251C28.7077 116.658 28.6244 117.144 28.6244 117.711C28.6244 118.278 28.7077 118.764 28.8744 119.171C29.0411 119.578 29.2744 119.891 29.5744 120.111C29.8744 120.331 30.2144 120.441 30.5944 120.441Z" fill="#202C75"/>
<path d="M23.9439 94.9932C23.4906 94.9932 23.1039 94.9065 22.7839 94.7332C22.4639 94.5532 22.2106 94.3165 22.0239 94.0232C21.8373 93.7232 21.7239 93.3998 21.6839 93.0532H22.6139C22.6806 93.3998 22.8306 93.6698 23.0639 93.8632C23.2973 94.0498 23.5939 94.1432 23.9539 94.1432C24.2873 94.1432 24.5806 94.0432 24.8339 93.8432C25.0873 93.6432 25.2906 93.3398 25.4439 92.9332C25.5973 92.5265 25.6839 92.0132 25.7039 91.3932C25.7106 91.3732 25.7139 91.3532 25.7139 91.3332C25.7139 91.3132 25.7139 91.2932 25.7139 91.2732C25.6073 91.4732 25.4606 91.6565 25.2739 91.8232C25.0873 91.9898 24.8673 92.1232 24.6139 92.2232C24.3673 92.3165 24.0906 92.3632 23.7839 92.3632C23.3906 92.3632 23.0206 92.2732 22.6739 92.0932C22.3339 91.9065 22.0539 91.6432 21.8339 91.3032C21.6206 90.9632 21.5139 90.5665 21.5139 90.1132C21.5139 89.7065 21.6106 89.3232 21.8039 88.9632C22.0039 88.6032 22.2839 88.3132 22.6439 88.0932C23.0106 87.8665 23.4406 87.7532 23.9339 87.7532C24.4473 87.7532 24.8773 87.8498 25.2239 88.0432C25.5773 88.2298 25.8573 88.4865 26.0639 88.8132C26.2773 89.1332 26.4306 89.4932 26.5239 89.8932C26.6239 90.2865 26.6739 90.6932 26.6739 91.1132C26.6739 91.8798 26.5673 92.5565 26.3539 93.1432C26.1406 93.7232 25.8306 94.1765 25.4239 94.5032C25.0173 94.8298 24.5239 94.9932 23.9439 94.9932ZM24.0039 91.5132C24.2906 91.5132 24.5473 91.4498 24.7739 91.3232C25.0006 91.1898 25.1806 91.0132 25.3139 90.7932C25.4473 90.5732 25.5139 90.3298 25.5139 90.0632C25.5139 89.7832 25.4473 89.5365 25.3139 89.3232C25.1806 89.1032 24.9973 88.9332 24.7639 88.8132C24.5373 88.6865 24.2806 88.6232 23.9939 88.6232C23.7139 88.6232 23.4606 88.6865 23.2339 88.8132C23.0073 88.9332 22.8273 89.1032 22.6939 89.3232C22.5673 89.5365 22.5039 89.7865 22.5039 90.0732C22.5039 90.3598 22.5673 90.6132 22.6939 90.8332C22.8273 91.0465 23.0073 91.2132 23.2339 91.3332C23.4606 91.4532 23.7173 91.5132 24.0039 91.5132ZM30.6628 94.9932C30.0428 94.9932 29.5094 94.8432 29.0628 94.5432C28.6161 94.2365 28.2728 93.8132 28.0328 93.2732C27.7928 92.7265 27.6728 92.0932 27.6728 91.3732C27.6728 90.6532 27.7928 90.0232 28.0328 89.4832C28.2728 88.9365 28.6161 88.5132 29.0628 88.2132C29.5094 87.9065 30.0428 87.7532 30.6628 87.7532C31.2828 87.7532 31.8128 87.9065 32.2528 88.2132C32.6994 88.5132 33.0394 88.9365 33.2728 89.4832C33.5128 90.0232 33.6328 90.6532 33.6328 91.3732C33.6328 92.0932 33.5128 92.7265 33.2728 93.2732C33.0394 93.8132 32.6994 94.2365 32.2528 94.5432C31.8128 94.8432 31.2828 94.9932 30.6628 94.9932ZM30.6628 94.1032C31.0361 94.1032 31.3694 93.9932 31.6628 93.7732C31.9628 93.5532 32.1961 93.2398 32.3628 92.8332C32.5294 92.4265 32.6128 91.9398 32.6128 91.3732C32.6128 90.8065 32.5294 90.3198 32.3628 89.9132C32.1961 89.5065 31.9628 89.1965 31.6628 88.9832C31.3694 88.7632 31.0361 88.6532 30.6628 88.6532C30.2828 88.6532 29.9428 88.7632 29.6428 88.9832C29.3428 89.1965 29.1094 89.5065 28.9428 89.9132C28.7761 90.3198 28.6928 90.8065 28.6928 91.3732C28.6928 91.9398 28.7761 92.4265 28.9428 92.8332C29.1094 93.2398 29.3428 93.5532 29.6428 93.7732C29.9428 93.9932 30.2828 94.1032 30.6628 94.1032Z" fill="#202C75"/>
<path d="M20.6853 68.535V62.665L19.4653 62.975V62.225L21.0553 61.535H21.7053V68.535H20.6853ZM25.8966 68.655C25.2766 68.655 24.7432 68.505 24.2966 68.205C23.8499 67.8984 23.5066 67.475 23.2666 66.935C23.0266 66.3884 22.9066 65.755 22.9066 65.035C22.9066 64.315 23.0266 63.685 23.2666 63.145C23.5066 62.5984 23.8499 62.175 24.2966 61.875C24.7432 61.5684 25.2766 61.415 25.8966 61.415C26.5166 61.415 27.0466 61.5684 27.4866 61.875C27.9332 62.175 28.2732 62.5984 28.5066 63.145C28.7466 63.685 28.8666 64.315 28.8666 65.035C28.8666 65.755 28.7466 66.3884 28.5066 66.935C28.2732 67.475 27.9332 67.8984 27.4866 68.205C27.0466 68.505 26.5166 68.655 25.8966 68.655ZM25.8966 67.765C26.2699 67.765 26.6032 67.655 26.8966 67.435C27.1966 67.215 27.4299 66.9017 27.5966 66.495C27.7632 66.0884 27.8466 65.6017 27.8466 65.035C27.8466 64.4684 27.7632 63.9817 27.5966 63.575C27.4299 63.1684 27.1966 62.8584 26.8966 62.645C26.6032 62.425 26.2699 62.315 25.8966 62.315C25.5166 62.315 25.1766 62.425 24.8766 62.645C24.5766 62.8584 24.3432 63.1684 24.1766 63.575C24.0099 63.9817 23.9266 64.4684 23.9266 65.035C23.9266 65.6017 24.0099 66.0884 24.1766 66.495C24.3432 66.9017 24.5766 67.215 24.8766 67.435C25.1766 67.655 25.5166 67.765 25.8966 67.765ZM32.8009 68.655C32.1809 68.655 31.6475 68.505 31.2009 68.205C30.7542 67.8984 30.4109 67.475 30.1709 66.935C29.9309 66.3884 29.8109 65.755 29.8109 65.035C29.8109 64.315 29.9309 63.685 30.1709 63.145C30.4109 62.5984 30.7542 62.175 31.2009 61.875C31.6475 61.5684 32.1809 61.415 32.8009 61.415C33.4209 61.415 33.9509 61.5684 34.3909 61.875C34.8375 62.175 35.1775 62.5984 35.4109 63.145C35.6509 63.685 35.7709 64.315 35.7709 65.035C35.7709 65.755 35.6509 66.3884 35.4109 66.935C35.1775 67.475 34.8375 67.8984 34.3909 68.205C33.9509 68.505 33.4209 68.655 32.8009 68.655ZM32.8009 67.765C33.1742 67.765 33.5075 67.655 33.8009 67.435C34.1009 67.215 34.3342 66.9017 34.5009 66.495C34.6675 66.0884 34.7509 65.6017 34.7509 65.035C34.7509 64.4684 34.6675 63.9817 34.5009 63.575C34.3342 63.1684 34.1009 62.8584 33.8009 62.645C33.5075 62.425 33.1742 62.315 32.8009 62.315C32.4209 62.315 32.0809 62.425 31.7809 62.645C31.4809 62.8584 31.2475 63.1684 31.0809 63.575C30.9142 63.9817 30.8309 64.4684 30.8309 65.035C30.8309 65.6017 30.9142 66.0884 31.0809 66.495C31.2475 66.9017 31.4809 67.215 31.7809 67.435C32.0809 67.655 32.4209 67.765 32.8009 67.765Z" fill="#202C75"/>
<path d="M15.3956 38.0081L13.4956 31.0081H14.5656L15.9856 36.8381L17.6156 31.0081H18.7256L20.3056 36.8581L21.7456 31.0081H22.8156L20.8856 38.0081H19.7156L18.1456 32.4381L16.5356 38.0081H15.3956ZM24.9118 38.1281C24.4985 38.1281 24.1551 38.0581 23.8818 37.9181C23.6085 37.7781 23.4051 37.5914 23.2718 37.3581C23.1385 37.1181 23.0718 36.8614 23.0718 36.5881C23.0718 36.2547 23.1585 35.9714 23.3318 35.7381C23.5051 35.4981 23.7518 35.3147 24.0718 35.1881C24.3918 35.0614 24.7751 34.9981 25.2218 34.9981H26.5318C26.5318 34.7047 26.4885 34.4614 26.4018 34.2681C26.3151 34.0747 26.1851 33.9314 26.0118 33.8381C25.8451 33.7381 25.6318 33.6881 25.3718 33.6881C25.0718 33.6881 24.8151 33.7614 24.6018 33.9081C24.3885 34.0481 24.2551 34.2581 24.2018 34.5381H23.2018C23.2418 34.1847 23.3618 33.8847 23.5618 33.6381C23.7685 33.3847 24.0318 33.1914 24.3518 33.0581C24.6718 32.9181 25.0118 32.8481 25.3718 32.8481C25.8451 32.8481 26.2418 32.9314 26.5618 33.0981C26.8818 33.2647 27.1218 33.5014 27.2818 33.8081C27.4485 34.1081 27.5318 34.4681 27.5318 34.8881V38.0081H26.6618L26.5818 37.1581C26.5085 37.2914 26.4218 37.4181 26.3218 37.5381C26.2218 37.6581 26.1018 37.7614 25.9618 37.8481C25.8285 37.9347 25.6718 38.0014 25.4918 38.0481C25.3185 38.1014 25.1251 38.1281 24.9118 38.1281ZM25.1018 37.3181C25.3151 37.3181 25.5085 37.2747 25.6818 37.1881C25.8551 37.1014 26.0018 36.9847 26.1218 36.8381C26.2485 36.6847 26.3418 36.5147 26.4018 36.3281C26.4685 36.1347 26.5051 35.9381 26.5118 35.7381V35.7081H25.3218C25.0351 35.7081 24.8018 35.7447 24.6218 35.8181C24.4485 35.8847 24.3218 35.9781 24.2418 36.0981C24.1618 36.2181 24.1218 36.3581 24.1218 36.5181C24.1218 36.6847 24.1585 36.8281 24.2318 36.9481C24.3118 37.0614 24.4251 37.1514 24.5718 37.2181C24.7185 37.2847 24.8951 37.3181 25.1018 37.3181ZM28.8082 38.0081V30.8081H29.8082V38.0081H28.8082ZM31.1812 38.0081V30.8081H32.1812V38.0081H31.1812ZM35.8343 38.1281C35.3543 38.1281 34.9276 38.0181 34.5543 37.7981C34.181 37.5781 33.8876 37.2714 33.6743 36.8781C33.4676 36.4847 33.3643 36.0281 33.3643 35.5081C33.3643 34.9747 33.4676 34.5114 33.6743 34.1181C33.8876 33.7181 34.181 33.4081 34.5543 33.1881C34.9276 32.9614 35.361 32.8481 35.8543 32.8481C36.3476 32.8481 36.771 32.9581 37.1243 33.1781C37.4776 33.3981 37.751 33.6914 37.9443 34.0581C38.1376 34.4181 38.2343 34.8181 38.2343 35.2581C38.2343 35.3247 38.231 35.3981 38.2243 35.4781C38.2243 35.5514 38.221 35.6347 38.2143 35.7281H34.0943V35.0181H37.2343C37.2143 34.5981 37.0743 34.2714 36.8143 34.0381C36.5543 33.7981 36.231 33.6781 35.8443 33.6781C35.571 33.6781 35.321 33.7414 35.0943 33.8681C34.8676 33.9881 34.6843 34.1681 34.5443 34.4081C34.411 34.6414 34.3443 34.9381 34.3443 35.2981V35.5781C34.3443 35.9514 34.411 36.2681 34.5443 36.5281C34.6843 36.7814 34.8676 36.9747 35.0943 37.1081C35.321 37.2347 35.5676 37.2981 35.8343 37.2981C36.1543 37.2981 36.4176 37.2281 36.6243 37.0881C36.831 36.9481 36.9843 36.7581 37.0843 36.5181H38.0843C37.9976 36.8247 37.851 37.1014 37.6443 37.3481C37.4376 37.5881 37.181 37.7781 36.8743 37.9181C36.5743 38.0581 36.2276 38.1281 35.8343 38.1281ZM41.2886 38.0081C40.9686 38.0081 40.6919 37.9581 40.4586 37.8581C40.2253 37.7581 40.0453 37.5914 39.9186 37.3581C39.7919 37.1247 39.7286 36.8081 39.7286 36.4081V33.8181H38.8586V32.9681H39.7286L39.8486 31.7081H40.7286V32.9681H42.1586V33.8181H40.7286V36.4181C40.7286 36.7047 40.7886 36.9014 40.9086 37.0081C41.0286 37.1081 41.2353 37.1581 41.5286 37.1581H42.1086V38.0081H41.2886Z" fill="#1B2250"/>
<path d="M4.82484 12.18C4.05484 12.18 3.37984 12.045 2.79984 11.775C2.21984 11.495 1.76984 11.105 1.44984 10.605C1.12984 10.105 0.969836 9.52 0.969836 8.85H2.54484C2.55484 9.23 2.64484 9.58 2.81484 9.9C2.99484 10.21 3.24984 10.46 3.57984 10.65C3.91984 10.83 4.33484 10.92 4.82484 10.92C5.24484 10.92 5.60484 10.85 5.90484 10.71C6.21484 10.57 6.44984 10.38 6.60984 10.14C6.76984 9.89 6.84984 9.605 6.84984 9.285C6.84984 8.915 6.76484 8.61 6.59484 8.37C6.42484 8.13 6.19484 7.935 5.90484 7.785C5.62484 7.625 5.29484 7.485 4.91484 7.365C4.54484 7.245 4.15484 7.115 3.74484 6.975C2.91484 6.705 2.29484 6.355 1.88484 5.925C1.48484 5.495 1.28484 4.935 1.28484 4.245C1.28484 3.655 1.42484 3.145 1.70484 2.715C1.98484 2.275 2.37484 1.935 2.87484 1.695C3.38484 1.445 3.98484 1.32 4.67484 1.32C5.35484 1.32 5.94984 1.445 6.45984 1.695C6.96984 1.945 7.36984 2.29 7.65984 2.73C7.94984 3.17 8.09484 3.685 8.09484 4.275H6.50484C6.50484 4.005 6.43484 3.74 6.29484 3.48C6.15484 3.22 5.94484 3.01 5.66484 2.85C5.38484 2.68 5.03984 2.595 4.62984 2.595C4.28984 2.585 3.98484 2.64 3.71484 2.76C3.44484 2.88 3.23484 3.055 3.08484 3.285C2.93484 3.515 2.85984 3.79 2.85984 4.11C2.85984 4.43 2.92484 4.69 3.05484 4.89C3.19484 5.08 3.39484 5.245 3.65484 5.385C3.91484 5.525 4.21484 5.655 4.55484 5.775C4.90484 5.885 5.28984 6.01 5.70984 6.15C6.22984 6.32 6.68984 6.53 7.08984 6.78C7.49984 7.02 7.81984 7.335 8.04984 7.725C8.28984 8.105 8.40984 8.595 8.40984 9.195C8.40984 9.715 8.27484 10.2 8.00484 10.65C7.73484 11.1 7.33484 11.47 6.80484 11.76C6.27484 12.04 5.61484 12.18 4.82484 12.18ZM13.2385 12C12.7585 12 12.3435 11.925 11.9935 11.775C11.6435 11.625 11.3735 11.375 11.1835 11.025C10.9935 10.675 10.8985 10.2 10.8985 9.6V5.715H9.59355V4.44H10.8985L11.0785 2.55H12.3985V4.44H14.5435V5.715H12.3985V9.615C12.3985 10.045 12.4885 10.34 12.6685 10.5C12.8485 10.65 13.1585 10.725 13.5985 10.725H14.4685V12H13.2385ZM18.7026 12.18C18.0826 12.18 17.5676 12.075 17.1576 11.865C16.7476 11.655 16.4426 11.375 16.2426 11.025C16.0426 10.665 15.9426 10.28 15.9426 9.87C15.9426 9.37 16.0726 8.945 16.3326 8.595C16.5926 8.235 16.9626 7.96 17.4426 7.77C17.9226 7.58 18.4976 7.485 19.1676 7.485H21.1326C21.1326 7.045 21.0676 6.68 20.9376 6.39C20.8076 6.1 20.6126 5.885 20.3526 5.745C20.1026 5.595 19.7826 5.52 19.3926 5.52C18.9426 5.52 18.5576 5.63 18.2376 5.85C17.9176 6.06 17.7176 6.375 17.6376 6.795H16.1376C16.1976 6.265 16.3776 5.815 16.6776 5.445C16.9876 5.065 17.3826 4.775 17.8626 4.575C18.3426 4.365 18.8526 4.26 19.3926 4.26C20.1026 4.26 20.6976 4.385 21.1776 4.635C21.6576 4.885 22.0176 5.24 22.2576 5.7C22.5076 6.15 22.6326 6.69 22.6326 7.32V12H21.3276L21.2076 10.725C21.0976 10.925 20.9676 11.115 20.8176 11.295C20.6676 11.475 20.4876 11.63 20.2776 11.76C20.0776 11.89 19.8426 11.99 19.5726 12.06C19.3126 12.14 19.0226 12.18 18.7026 12.18ZM18.9876 10.965C19.3076 10.965 19.5976 10.9 19.8576 10.77C20.1176 10.64 20.3376 10.465 20.5176 10.245C20.7076 10.015 20.8476 9.76 20.9376 9.48C21.0376 9.19 21.0926 8.895 21.1026 8.595V8.55H19.3176C18.8876 8.55 18.5376 8.605 18.2676 8.715C18.0076 8.815 17.8176 8.955 17.6976 9.135C17.5776 9.315 17.5176 9.525 17.5176 9.765C17.5176 10.015 17.5726 10.23 17.6826 10.41C17.8026 10.58 17.9726 10.715 18.1926 10.815C18.4126 10.915 18.6776 10.965 18.9876 10.965ZM27.5061 12C27.0261 12 26.6111 11.925 26.2611 11.775C25.9111 11.625 25.6411 11.375 25.4511 11.025C25.2611 10.675 25.1661 10.2 25.1661 9.6V5.715H23.8611V4.44H25.1661L25.3461 2.55H26.6661V4.44H28.8111V5.715H26.6661V9.615C26.6661 10.045 26.7561 10.34 26.9361 10.5C27.1161 10.65 27.4261 10.725 27.8661 10.725H28.7361V12H27.5061ZM30.5702 12V4.44H32.0702V12H30.5702ZM31.3352 3.015C31.0452 3.015 30.8052 2.925 30.6152 2.745C30.4352 2.565 30.3452 2.335 30.3452 2.055C30.3452 1.785 30.4352 1.565 30.6152 1.395C30.8052 1.215 31.0452 1.125 31.3352 1.125C31.6152 1.125 31.8502 1.215 32.0402 1.395C32.2302 1.565 32.3252 1.785 32.3252 2.055C32.3252 2.335 32.2302 2.565 32.0402 2.745C31.8502 2.925 31.6152 3.015 31.3352 3.015ZM37.1402 12.18C36.5002 12.18 35.9402 12.075 35.4602 11.865C34.9802 11.655 34.6002 11.36 34.3202 10.98C34.0402 10.6 33.8702 10.155 33.8102 9.645H35.3402C35.3902 9.885 35.4852 10.105 35.6252 10.305C35.7752 10.505 35.9752 10.665 36.2252 10.785C36.4852 10.905 36.7902 10.965 37.1402 10.965C37.4702 10.965 37.7402 10.92 37.9502 10.83C38.1702 10.73 38.3302 10.6 38.4302 10.44C38.5302 10.27 38.5802 10.09 38.5802 9.9C38.5802 9.62 38.5102 9.41 38.3702 9.27C38.2402 9.12 38.0402 9.005 37.7702 8.925C37.5102 8.835 37.1952 8.755 36.8252 8.685C36.4752 8.625 36.1352 8.545 35.8052 8.445C35.4852 8.335 35.1952 8.2 34.9352 8.04C34.6852 7.88 34.4852 7.68 34.3352 7.44C34.1852 7.19 34.1102 6.885 34.1102 6.525C34.1102 6.095 34.2252 5.71 34.4552 5.37C34.6852 5.02 35.0102 4.75 35.4302 4.56C35.8602 4.36 36.3652 4.26 36.9452 4.26C37.7852 4.26 38.4602 4.46 38.9702 4.86C39.4802 5.26 39.7802 5.825 39.8702 6.555H38.4152C38.3752 6.215 38.2252 5.955 37.9652 5.775C37.7052 5.585 37.3602 5.49 36.9302 5.49C36.5002 5.49 36.1702 5.575 35.9402 5.745C35.7102 5.915 35.5952 6.14 35.5952 6.42C35.5952 6.6 35.6602 6.76 35.7902 6.9C35.9202 7.04 36.1102 7.16 36.3602 7.26C36.6202 7.35 36.9352 7.435 37.3052 7.515C37.8352 7.615 38.3102 7.74 38.7302 7.89C39.1502 8.04 39.4852 8.26 39.7352 8.55C39.9852 8.84 40.1102 9.255 40.1102 9.795C40.1202 10.265 40.0002 10.68 39.7502 11.04C39.5102 11.4 39.1652 11.68 38.7152 11.88C38.2752 12.08 37.7502 12.18 37.1402 12.18ZM44.6887 12C44.2087 12 43.7937 11.925 43.4437 11.775C43.0937 11.625 42.8237 11.375 42.6337 11.025C42.4437 10.675 42.3487 10.2 42.3487 9.6V5.715H41.0437V4.44H42.3487L42.5287 2.55H43.8487V4.44H45.9937V5.715H43.8487V9.615C43.8487 10.045 43.9387 10.34 44.1187 10.5C44.2987 10.65 44.6087 10.725 45.0487 10.725H45.9187V12H44.6887ZM47.7528 12V4.44H49.2528V12H47.7528ZM48.5178 3.015C48.2278 3.015 47.9878 2.925 47.7978 2.745C47.6178 2.565 47.5278 2.335 47.5278 2.055C47.5278 1.785 47.6178 1.565 47.7978 1.395C47.9878 1.215 48.2278 1.125 48.5178 1.125C48.7978 1.125 49.0328 1.215 49.2228 1.395C49.4128 1.565 49.5078 1.785 49.5078 2.055C49.5078 2.335 49.4128 2.565 49.2228 2.745C49.0328 2.925 48.7978 3.015 48.5178 3.015ZM54.8928 12.18C54.1628 12.18 53.5128 12.015 52.9428 11.685C52.3728 11.345 51.9228 10.88 51.5928 10.29C51.2728 9.7 51.1128 9.015 51.1128 8.235C51.1128 7.445 51.2728 6.755 51.5928 6.165C51.9228 5.565 52.3728 5.1 52.9428 4.77C53.5128 4.43 54.1628 4.26 54.8928 4.26C55.8128 4.26 56.5828 4.5 57.2028 4.98C57.8228 5.46 58.2178 6.11 58.3878 6.93H56.8278C56.7278 6.49 56.4978 6.15 56.1378 5.91C55.7878 5.67 55.3678 5.55 54.8778 5.55C54.4778 5.55 54.1078 5.655 53.7678 5.865C53.4278 6.065 53.1528 6.365 52.9428 6.765C52.7428 7.155 52.6428 7.64 52.6428 8.22C52.6428 8.65 52.7028 9.035 52.8228 9.375C52.9428 9.705 53.1028 9.985 53.3028 10.215C53.5128 10.445 53.7528 10.62 54.0228 10.74C54.2928 10.85 54.5778 10.905 54.8778 10.905C55.2078 10.905 55.5028 10.855 55.7628 10.755C56.0328 10.645 56.2578 10.485 56.4378 10.275C56.6278 10.065 56.7578 9.815 56.8278 9.525H58.3878C58.2178 10.325 57.8228 10.97 57.2028 11.46C56.5828 11.94 55.8128 12.18 54.8928 12.18Z" fill="#1B2250"/>
<path d="M45.7935 55.8168V335.761H467.24" stroke="#8C88A2" stroke-width="0.5" stroke-miterlimit="10"/>
<path d="M103.713 344.472V76.7714" stroke="#6C6788" stroke-width="0.25" stroke-miterlimit="10"/>
<path d="M161.632 76.7714V344.472" stroke="#6C6788" stroke-width="0.25" stroke-miterlimit="10"/>
<path d="M219.552 76.7714V344.472" stroke="#6C6788" stroke-width="0.25" stroke-miterlimit="10"/>
<path d="M277.471 76.7714V344.472" stroke="#6C6788" stroke-width="0.25" stroke-miterlimit="10"/>
<path d="M335.391 76.7714V344.472" stroke="#6C6788" stroke-width="0.25" stroke-miterlimit="10"/>
<path d="M393.31 76.7714V344.472" stroke="#6C6788" stroke-width="0.25" stroke-miterlimit="10"/>
<path d="M451.23 76.7714V344.472" stroke="#6C6788" stroke-width="0.25" stroke-miterlimit="10"/>
<path d="M453.584 257.358L393.31 222.041L335.391 258.535L277.471 210.033L219.552 261.831L161.632 154.939L103.713 175.894L45.0872 144.109" stroke="#3700FF" stroke-miterlimit="10"/>
<path d="M453.584 290.32L393.31 201.793L335.391 228.163L277.471 194.259L219.552 188.843L161.632 245.585L103.713 222.512L46.0288 302.328" stroke="#0080FF" stroke-miterlimit="10"/>
<path d="M107.48 175.894C107.48 173.775 105.832 171.891 103.477 171.891C101.358 171.891 99.4749 173.539 99.4749 175.894C99.4749 178.013 101.123 179.896 103.477 179.896C105.832 179.896 107.48 178.013 107.48 175.894Z" fill="white"/>
<path d="M107.48 222.983C107.48 220.864 105.832 218.98 103.477 218.98C101.358 218.98 99.4749 220.628 99.4749 222.983C99.4749 225.102 101.123 226.985 103.477 226.985C105.832 226.985 107.48 225.337 107.48 222.983Z" fill="white"/>
<path d="M165.399 155.41C165.399 153.291 163.751 151.407 161.397 151.407C159.278 151.407 157.394 153.055 157.394 155.41C157.394 157.529 159.042 159.412 161.397 159.412C163.751 159.412 165.399 157.529 165.399 155.41Z" fill="white"/>
<path d="M161.632 249.117C163.843 249.117 165.635 247.325 165.635 245.114C165.635 242.904 163.843 241.112 161.632 241.112C159.422 241.112 157.63 242.904 157.63 245.114C157.63 247.325 159.422 249.117 161.632 249.117Z" fill="white"/>
<path d="M223.554 261.36C223.554 259.241 221.906 257.358 219.552 257.358C217.197 257.358 215.549 259.006 215.549 261.36C215.549 263.479 217.197 265.363 219.552 265.363C221.906 265.363 223.554 263.479 223.554 261.36Z" fill="white"/>
<path d="M223.554 189.079C223.554 186.96 221.906 185.076 219.552 185.076C217.197 185.076 215.549 186.724 215.549 189.079C215.549 191.198 217.197 193.081 219.552 193.081C221.906 193.081 223.554 191.198 223.554 189.079Z" fill="white"/>
<path d="M281.709 210.504C281.709 208.385 280.061 206.502 277.707 206.502C275.588 206.502 273.704 208.15 273.704 210.504C273.704 212.623 275.352 214.507 277.707 214.507C279.826 214.271 281.709 212.623 281.709 210.504Z" fill="white"/>
<path d="M281.709 194.494C281.709 192.375 280.061 190.491 277.707 190.491C275.588 190.491 273.704 192.139 273.704 194.494C273.704 196.613 275.352 198.496 277.707 198.496C279.826 198.496 281.709 196.613 281.709 194.494Z" fill="white"/>
<path d="M339.393 258.064C339.393 255.945 337.745 254.061 335.391 254.061C333.272 254.061 331.388 255.709 331.388 258.064C331.388 260.183 333.036 262.066 335.391 262.066C337.51 261.831 339.393 260.183 339.393 258.064Z" fill="white"/>
<path d="M339.393 227.927C339.393 225.808 337.745 223.924 335.391 223.924C333.272 223.924 331.388 225.573 331.388 227.927C331.388 230.046 333.036 231.93 335.391 231.93C337.51 231.93 339.393 230.046 339.393 227.927Z" fill="white"/>
<path d="M397.548 222.747C397.548 220.628 395.9 218.745 393.546 218.745C391.427 218.745 389.543 220.393 389.543 222.747C389.543 225.102 391.191 226.75 393.546 226.75C395.665 226.514 397.548 224.866 397.548 222.747Z" fill="white"/>
<path d="M397.548 202.264C397.548 200.145 395.9 198.261 393.546 198.261C391.427 198.261 389.543 199.909 389.543 202.264C389.543 204.383 391.191 206.266 393.546 206.266C395.665 206.266 397.548 204.383 397.548 202.264Z" fill="white"/>
</svg>
