<svg width="162" height="39" viewBox="0 0 162 39" fill="none" xmlns="http://www.w3.org/2000/svg">
<path d="M47.8054 34.6053V6.06494H65.5413V9.41943H51.8819V18.6638H63.3397V21.9259H51.8819V34.6053H47.8054Z" fill="#E0ECF6"/>
<path d="M71.9828 10.1843C71.6274 10.1976 71.2729 10.1395 70.9403 10.0135C70.6077 9.88742 70.3037 9.69596 70.0464 9.45042C69.7969 9.2077 69.6009 8.91555 69.4708 8.59269C69.3408 8.26983 69.2796 7.92338 69.2912 7.57551C69.281 7.2366 69.343 6.89939 69.4732 6.58632C69.6034 6.27325 69.7988 5.99149 70.0464 5.75978C70.5827 5.30006 71.2658 5.04736 71.9722 5.04736C72.6786 5.04736 73.3616 5.30006 73.898 5.75978C74.15 5.98891 74.3497 6.26975 74.4833 6.58311C74.6169 6.89648 74.6813 7.23498 74.6721 7.57551C74.683 7.925 74.6197 8.27284 74.4862 8.59604C74.3528 8.91924 74.1523 9.21045 73.898 9.45042C73.3819 9.93887 72.6932 10.2028 71.9828 10.1843ZM69.9422 34.6055V14.0572H74.0211V34.6055H69.9422Z" fill="#E0ECF6"/>
<path d="M79.8921 34.6055V14.0572H83.5662L83.8029 17.5632C84.4266 16.3447 85.3818 15.3272 86.5584 14.6277C87.8146 13.9018 89.246 13.5349 90.6965 13.5671C92.3536 13.5671 93.7669 13.8938 94.9364 14.5472C96.1274 15.2233 97.0756 16.2569 97.6469 17.5016C98.2782 18.8194 98.5939 20.471 98.5939 22.4564V34.6055H94.5292V22.8636C94.5292 20.9603 94.1078 19.513 93.265 18.5219C92.4223 17.5308 91.1992 17.0345 89.5957 17.0329C88.5903 17.0179 87.6009 17.2861 86.7407 17.807C85.8723 18.3524 85.1737 19.1297 84.7238 20.0512C84.2203 21.0297 83.9686 22.2252 83.9686 23.6377V34.6055H79.8921Z" fill="#E0ECF6"/>
<path d="M113.158 35.0955C111.335 35.1297 109.538 34.6647 107.961 33.7509C106.451 32.8551 105.222 31.5556 104.41 29.9987C103.555 28.3952 103.127 26.5195 103.127 24.3716C103.127 22.2236 103.541 20.3416 104.37 18.7255C105.165 17.1482 106.398 15.8333 107.921 14.9378C109.538 14.0067 111.378 13.5345 113.243 13.5719C115.253 13.5719 116.979 14.0209 118.42 14.9189C119.825 15.782 120.97 17.009 121.734 18.4699C122.519 19.9802 122.918 21.6612 122.897 23.3631V24.2603C122.895 24.6012 122.867 24.9415 122.814 25.2783H106.108V22.4375H118.87C118.786 20.7377 118.215 19.3971 117.156 18.4154C116.08 17.4296 114.661 16.903 113.202 16.9477C112.135 16.9371 111.083 17.1978 110.144 17.7052C109.215 18.2139 108.451 18.9779 107.942 19.9068C107.398 20.8727 107.126 22.0895 107.128 23.5572V24.6983C107.128 26.2197 107.399 27.4972 107.942 28.5309C108.421 29.4988 109.165 30.3112 110.087 30.8739C111.008 31.4366 112.071 31.7266 113.15 31.7102C114.457 31.7102 115.538 31.4254 116.394 30.8556C117.24 30.2945 117.889 29.4812 118.247 28.5309H122.326C121.978 29.7689 121.366 30.9166 120.532 31.8949C119.682 32.8925 118.624 33.6924 117.433 34.2385C116.088 34.8339 114.628 35.1264 113.158 35.0955Z" fill="#E0ECF6"/>
<path d="M134.281 35.0954C132.596 35.0954 131.196 34.8097 130.081 34.2384C129.042 33.736 128.177 32.9337 127.598 31.935C127.054 30.9712 126.773 29.8813 126.784 28.7747C126.75 27.5428 127.119 26.3336 127.835 25.3302C128.608 24.3167 129.654 23.5453 130.851 23.1073C132.154 22.5912 133.733 22.3332 135.585 22.3332H140.886C140.918 21.3168 140.737 20.3048 140.356 19.3622C140.037 18.6122 139.487 17.9835 138.786 17.5678C137.98 17.133 137.072 16.9221 136.156 16.957C135.045 16.9245 133.951 17.23 133.017 17.8329C132.146 18.4169 131.602 19.307 131.386 20.5033H127.309C127.433 19.1376 127.949 17.8368 128.796 16.7582C129.644 15.7096 130.746 14.8947 131.997 14.3909C133.315 13.8437 134.729 13.566 136.156 13.5741C138.086 13.5741 139.704 13.9143 141.009 14.5945C142.265 15.2272 143.296 16.2304 143.963 17.4684C144.629 18.7057 144.962 20.1805 144.962 21.8929V34.6125H141.411L141.092 31.1396C140.811 31.6974 140.462 32.2183 140.053 32.6902C139.628 33.1814 139.134 33.6074 138.585 33.9544C137.996 34.321 137.359 34.6023 136.691 34.79C135.906 35.004 135.095 35.1068 134.281 35.0954ZM135.055 31.7812C135.875 31.7924 136.686 31.6108 137.423 31.2509C138.127 30.8995 138.745 30.3986 139.236 29.7831C139.738 29.1607 140.131 28.458 140.398 27.7046C140.672 26.9311 140.824 26.1197 140.848 25.2995V25.2166H135.995C135.021 25.1839 134.048 25.3217 133.121 25.6238C132.68 25.7838 132.28 26.0405 131.951 26.3751C131.622 26.7096 131.372 27.1136 131.219 27.5573C131.066 28.001 131.015 28.4733 131.068 28.9396C131.122 29.4058 131.279 29.8542 131.528 30.2519C131.865 30.7633 132.349 31.1616 132.915 31.3953C133.593 31.6767 134.322 31.8122 135.055 31.793V31.7812Z" fill="#E0ECF6"/>
<path d="M150.182 34.6054V14.0571H153.852L154.176 17.9419C154.635 17.0576 155.25 16.2636 155.992 15.5982C156.753 14.9344 157.638 14.4283 158.596 14.1092C159.693 13.7438 160.844 13.5645 162 13.5789V17.8496H160.532C159.722 17.8483 158.916 17.959 158.137 18.1786C157.402 18.3839 156.72 18.7457 156.139 19.2392C155.532 19.7805 155.064 20.4591 154.773 21.2182C154.402 22.2284 154.229 23.3007 154.264 24.3762V34.6101L150.182 34.6054Z" fill="#E0ECF6"/>
<path d="M33.2347 0H5.16074C2.31054 0 0 2.31054 0 5.16074V33.2347C0 36.0849 2.31054 38.3955 5.16074 38.3955H33.2347C36.0849 38.3955 38.3955 36.0849 38.3955 33.2347V5.16074C38.3955 2.31054 36.0849 0 33.2347 0Z" fill="url(#paint0_linear_6_3176)"/>
<path d="M29.956 8.24536V14.1636H23.1666C21.8947 14.1605 20.6758 13.6536 19.7769 12.7537C18.878 11.8539 18.3723 10.6346 18.3704 9.36273V8.24536H29.9702H29.956Z" fill="white"/>
<path d="M16.6658 32.4275H10.7476L10.7476 15.951H11.8602C12.4916 15.951 13.1168 16.0754 13.7001 16.317C14.2835 16.5586 14.8135 16.9128 15.26 17.3592C16.1617 18.2609 16.6682 19.4838 16.6682 20.759V32.4275H16.6658Z" fill="white"/>
<path d="M25.0935 22.686H18.3609V21.4172C18.3621 19.9689 18.9383 18.5804 19.9628 17.5568C20.9874 16.5331 22.3764 15.9581 23.8246 15.9581H25.0935V22.686Z" fill="white"/>
<path d="M10.7429 8.24536H17.4756V9.51424C17.4759 10.232 17.3348 10.9427 17.0603 11.6059C16.7859 12.269 16.3835 12.8716 15.8761 13.3792C15.3687 13.8868 14.7663 14.2895 14.1032 14.5642C13.4402 14.839 12.7295 14.9804 12.0118 14.9804H10.7429V8.24536Z" fill="white"/>
<defs>
<linearGradient id="paint0_linear_6_3176" x1="0" y1="19.1977" x2="38.3955" y2="19.1977" gradientUnits="userSpaceOnUse">
<stop stop-color="#004EE8"/>
<stop offset="1" stop-color="#98C5EC"/>
</linearGradient>
</defs>
</svg>
